<svg version="1.1" xmlns="http://www.w3.org/2000/svg" xmlns:xlink="http://www.w3.org/1999/xlink" style="enable-background:new 0 0 30 30;" xml:space="preserve" width="30" height="30"><rect id="backgroundrect" width="100%" height="100%" x="0" y="0" fill="none" stroke="none"/>

<g class="currentLayer" style=""><title>Layer 1</title><g id="XMLID_2_" class="" fill="#b80404" fill-opacity="1" stroke="#e98a8a" stroke-opacity="1">
	<g id="svg_1" fill="#b80404" fill-opacity="1" stroke="#e98a8a" stroke-opacity="1">
		<path style="" d="M15,28.9c-1.6-3-8-9.4-9.9-13.5c-0.6-1.3-1-2.7-1-4.2C4.2,5.7,9.1,1.1,15,1.1s10.9,4.6,10.9,10.1    c0,1.5-0.4,2.9-1,4.2l0,0C23,19.5,16.6,25.9,15,28.9L15,28.9z" id="svg_2" fill="#b80404" fill-opacity="1" stroke="#e98a8a" stroke-opacity="1"/>
	</g>
	<g id="svg_3" fill="#b80404" fill-opacity="1" stroke="#e98a8a" stroke-opacity="1">
		<path style="stroke-width: 2px; stroke-linecap: round; stroke-miterlimit: 10;" d="M5.1,15.4    c-0.6-1.3-1-2.7-1-4.2C4.2,5.7,9.1,1.1,15,1.1s10.9,4.6,10.9,10.1c0,1.5-0.4,2.9-1,4.2" id="svg_4" fill="#b80404" fill-opacity="1" stroke="#e98a8a" stroke-opacity="1"/>
		
			<line style="fill: none; stroke-width: 2px; stroke-linecap: round; stroke-miterlimit: 10;" x1="15.100000381469727" y1="28.899999618530273" x2="15.100000381469727" y2="28.899999618530273" id="svg_5" stroke="#e98a8a"/>
		<path style="stroke-width: 2px; stroke-linecap: round; stroke-miterlimit: 10;" d="M5.1,15.4    c1.9,4.1,8.3,10.5,9.9,13.5" id="svg_6" fill="#b80404" fill-opacity="1" stroke="#e98a8a" stroke-opacity="1"/>
		<path style="stroke-width: 2px; stroke-linecap: round; stroke-miterlimit: 10;" d="M24.9,15.4    c-1.9,4.1-8.3,10.5-9.9,13.5h0v0" id="svg_7" fill="#b80404" fill-opacity="1" stroke="#e98a8a" stroke-opacity="1"/>
	</g>
</g></g></svg>